<?xml version="1.0" encoding="UTF-8" standalone="no"?>
<svg width="256px" height="128px" viewBox="0 0 256 128" version="1.1" xmlns="http://www.w3.org/2000/svg" xmlns:xlink="http://www.w3.org/1999/xlink" xmlns:sketch="http://www.bohemiancoding.com/sketch/ns">
    <title>F</title>
    <description>Created with Sketch (http://www.bohemiancoding.com/sketch)</description>
    <defs></defs>
    <g id="Page 1" fill="rgb(215,215,215)" fill-rule="evenodd">
        <g id="logo">
            <g id="Group">
                <path d="M102.247917,60.8112607 L83.234962,60.8112607 L75.3121102,52.8091659 L94.3251125,52.8091659 L94.3251125,16 L102.247917,24.0020947" id="Shape" fill="rgb(0,0,0)"></path>
                <path d="M91.7290215,49.5184439 L79.0537179,49.5184439 L79.0537179,30.309838 L52.1179107,30.309838 L52.1179107,55.9194932 L67.9636144,55.9194932 L67.9636144,67.1197871 L52.1179107,67.1197871 L52.1179107,89.5250259 L63.2080613,89.5250259 L63.2080613,100.724549 L28.3494023,100.724549 L28.3494023,89.5250259 L39.443359,89.5250259 L39.443359,30.309838 L28.3494023,30.309838 L28.3494023,19.1103273 L91.7290215,19.1103273" id="Shape" fill="rgb(0,0,0)"></path>
                <path d="M24.5,33.8843817 L35.5901505,33.8843817 L35.5901505,41.8833679 L32.4228518,41.8833679" id="Shape" fill="rgb(0,0,0)"></path>
                <path d="M24.5,103.586803 L65.6947601,103.586803 L65.6947601,85.9823633 L73.6176119,93.9844462 L73.6176119,111.585801 L32.4228518,111.585801" id="Shape" fill="rgb(0,0,0)"></path>
                <path d="M79.0598736,60.54844 L79.0598736,78.1497714 L63.2180701,78.1497714 L63.2180701,86.151878 L55.2952183,86.151878 L55.2952183,70.1476885 L71.1370218,70.1476885 L71.1370218,52.5463453" id="Shape" fill="rgb(0,0,0)"></path>
                <path d="M63.2180701,41.8833679 L63.2180701,53.0890959 L55.2952183,53.0890959 L55.2952183,33.8843817 L75.8925749,33.8843817 L75.8925749,41.8833679" id="Shape" fill="rgb(0,0,0)"></path>
            </g>
            <path d="M219.79036,86.742916 L219.79036,95.7043128 C219.79036,97.1992932 220.567387,98.3186 224.053282,98.3186 C227.540708,98.3186 228.317736,97.1992932 228.317736,95.7043128 L228.317736,86.742916 C228.317736,85.2479356 227.575958,84.1324858 224.053282,84.1324858 C220.529859,84.1332606 219.79036,85.248698 219.79036,86.742916 M190.30548,37.7140275 L190.30548,37.3391252 C190.30548,35.8480019 189.561404,34.7248381 187.152926,34.7248381 L182.888472,34.7248381 L182.888472,40.3252293 L187.152926,40.3252293 C189.525384,40.3252366 190.30548,39.2051616 190.30548,37.7140275 M172.502077,37.3383542 L172.502077,37.1524459 C172.502077,35.6574655 171.948043,34.724067 169.535733,34.724067 L165.45749,34.724067 L165.45749,39.95187 L169.535733,39.95187 C171.90972,39.9526473 172.502077,38.8333491 172.502077,37.3383542 M173.059917,45.5530458 L173.059917,44.8055556 C173.059917,43.3105753 172.279058,42.1912685 169.907363,42.1912685 L165.457464,42.1912685 L165.457464,48.1665616 L169.907363,48.1665616 C172.316629,48.166562 173.059917,47.0472403 173.059917,45.5530458 M207.1794,59.2408243 C203.65519,59.2408243 202.914946,60.3601311 202.914946,61.8551114 L202.914946,70.8134228 C202.914946,72.3107174 203.691973,73.42771 207.1794,73.42771 C210.666826,73.42771 211.443854,72.3114888 211.443854,70.8134228 L211.443854,61.8551114 C211.443856,60.3601224 210.70286,59.2408243 207.1794,59.2408243 M191.046523,84.5042962 L186.783601,84.5042962 L186.783601,90.1046874 L191.046523,90.1046874 C193.42205,90.1046874 194.199077,88.9853806 194.199077,87.4904002 L194.199077,87.1185837 C194.198292,85.6235943 193.460337,84.5042962 191.046523,84.5042962 M152.887132,59.0186643 L150.511605,66.708017 L155.296377,66.708017 L152.887132,59.0186643 L152.887132,59.0186643 L152.887132,59.0186643 M147.358264,41.8194311 L152.143035,41.8194311 L149.732259,34.1300785 L147.358264,41.8194311 L147.358264,41.8194311 L147.358264,41.8194311 M228.022742,41.8194311 L232.806747,41.8194311 L230.395971,34.1300785 L228.022742,41.8194311 L228.022742,41.8194311 L228.022742,41.8194311 M240,50.7777476 L232.582225,50.7777476 L232.582225,48.166546 L234.80909,48.166546 L233.622859,44.4298665 L227.24342,44.4298665 L226.091673,48.166546 L228.319304,48.166546 L228.319304,50.7777476 L221.084675,50.7777476 L221.084675,48.166546 L223.31154,48.166546 L228.503216,31.9246404 L232.581459,31.9246404 L237.774668,48.166546 L239.998467,48.166546 L239.998467,50.7777476 L239.998467,50.7777476 L240,50.7777476 M220.344411,45.7389521 C220.344411,48.6155166 218.490734,50.9636693 213.115146,50.9636693 C207.734961,50.9636693 205.881284,48.6155164 205.881284,45.7389521 L205.881284,37.1532285 C205.881284,34.2797497 207.735727,31.9246542 213.115146,31.9246542 C214.783379,31.9246542 216.63629,32.1105625 217.935933,33.0470466 L218.305289,31.9246542 L220.343645,31.9246542 L220.343645,38.8333462 L217.564278,38.8333462 L217.564278,37.1532289 C217.564278,35.6582485 216.635524,34.5389417 213.11438,34.5389417 C209.590171,34.5389417 208.846861,35.6582485 208.846861,37.1532289 L208.846861,45.7389524 C208.846861,47.2339328 209.626953,48.3532396 213.11438,48.3532396 C216.635524,48.3532396 217.564278,47.2339328 217.564278,45.7389524 L217.564278,44.0611494 L220.343645,44.0611494 L220.343645,45.7389521 L220.343645,45.7389521 L220.344411,45.7389521 M128,81.8900032 L142.092239,81.8900032 L142.092239,88.6097013 L139.310573,88.6097013 L139.310573,84.5042907 L136.531206,84.5042907 L136.531206,97.943687 L139.126661,97.943687 L139.126661,100.554889 L130.967109,100.554889 L130.967109,97.943687 L133.562564,97.943687 L133.562564,84.5042907 L130.780899,84.5042907 L130.780899,88.6097013 L128.001532,88.6097013 L128.001532,81.8900032 L128.001532,81.8900032 L128,81.8900032 M131.521917,62.0410236 C131.521917,66.8939243 142.834789,62.0410236 142.834789,70.2549302 C142.834789,73.2410341 140.980345,75.8553214 135.600926,75.8553214 C133.931161,75.8553214 132.079782,75.6655561 130.780139,74.7360146 L130.410783,75.6655562 L128.370129,75.6655562 L128.370129,68.9497151 L131.151794,68.9497151 L131.151794,70.6306037 C131.151794,72.1224985 132.080549,73.2418053 135.601693,73.2418053 C139.125902,73.2418053 140.054656,71.7499105 140.054656,70.2557015 C140.054656,65.4028007 128.743317,69.8800279 128.743317,62.0417948 C128.743317,59.168316 130.226872,56.8139918 135.601693,56.8139918 C137.271458,56.8139918 138.754247,57.0037571 140.054656,57.9371556 L140.424013,57.0037571 L142.465433,57.0037571 L142.465433,63.7226835 L139.683768,63.7226835 L139.683768,61.8558865 C139.683768,60.3609061 139.125902,59.4313647 135.602459,59.4313647 C132.079803,59.4305913 131.521917,60.5498894 131.521917,62.0410236 M130.594725,48.166562 L130.594725,34.7248527 L128.369392,34.7248527 L128.369392,32.1105656 L142.461631,32.1105656 L142.461631,38.8333491 L139.682264,38.8333491 L139.682264,34.7248527 L133.563367,34.7248527 L133.563367,40.3252439 L137.272254,40.3252439 L137.272254,42.9395311 L133.563367,42.9395311 L133.563367,48.1673341 L136.52971,48.1673341 L136.52971,50.7785357 L128.370158,50.7785357 L128.370158,48.1673341 L130.594725,48.1673341 L130.594725,48.1673341 L130.594725,48.166562 M151.956058,31.1038688 L148.064026,31.1038688 L153.400532,27.0717413 L153.400532,30.0578452 L151.956058,31.1038688 L151.956058,31.1038688 L151.956058,31.1038688 M157.111739,48.166562 L159.338604,48.166562 L159.338604,50.7777636 L151.917764,50.7777636 L151.917764,48.166562 L154.144629,48.166562 L152.959165,44.4298825 L146.581258,44.4298825 L145.427978,48.166562 L147.654843,48.166562 L147.654843,50.7777636 L140.424045,50.7777636 L140.424045,48.166562 L142.647845,48.166562 L147.839521,31.9246564 L151.917764,31.9246564 L157.111739,48.166562 L157.111739,48.166562 L157.111739,48.166562 M143.573494,73.0551141 L145.801125,73.0551141 L150.994333,56.8124374 L155.072577,56.8124374 L160.265785,73.0551141 L162.488053,73.0551141 L162.488053,75.6655443 L155.072577,75.6655443 L155.072577,73.0551141 L157.297909,73.0551141 L156.108613,69.3184345 L149.733771,69.3184345 L148.58279,73.0551141 L150.807356,73.0551141 L150.807356,75.6655443 L143.573494,75.6655443 L143.573494,73.0551141 L143.573494,73.0551141 L143.573494,73.0551141 M143.762028,81.8900032 L151.177504,81.8900032 L151.177504,84.5042903 L148.953704,84.5042903 L148.953704,89.7290076 L156.742367,89.7290076 L156.742367,84.5042903 L154.514736,84.5042903 L154.514736,81.8900032 L161.935576,81.8900032 L161.935576,84.5042903 L159.707944,84.5042903 L159.707944,97.9436867 L161.935576,97.9436867 L161.935576,100.554888 L154.514736,100.554888 L154.514736,97.9436867 L156.742367,97.9436867 L156.742367,92.3463812 L148.953704,92.3463812 L148.953704,97.9436867 L151.177504,97.9436867 L151.177504,100.554888 L143.762028,100.554888 L143.762028,97.9436867 L145.987361,97.9436867 L145.987361,84.5042903 L143.762028,84.5042903 L143.762028,81.8900032 L143.762028,81.8900032 L143.762028,81.8900032 M163.232918,81.8900032 L169.90585,81.8900032 L169.90585,84.5042903 L168.054471,84.5042903 L171.98252,90.3276169 L175.841602,84.5042903 L173.987158,84.5042903 L173.987158,81.8900032 L180.2915,81.8900032 L180.2915,84.5042903 L178.807945,84.5042903 L173.243082,92.7158833 L173.243082,97.9436863 L175.841602,97.9436863 L175.841602,100.554888 L167.68205,100.554888 L167.68205,97.9436863 L170.277505,97.9436863 L170.277505,92.7158833 L164.716473,84.5042903 L163.232918,84.5042903 L163.232918,81.8900032 L163.232918,81.8900032 L163.232918,81.8900032 M181.589624,81.8900032 L191.045754,81.8900032 C196.053518,81.8900032 197.165418,84.2420131 197.165418,87.1178061 L197.165418,87.3037144 C197.165418,88.9483472 196.50027,90.4757265 194.756174,91.2965002 C196.684948,91.9707071 197.165418,93.3522911 197.165418,95.331713 L197.165418,96.8236079 C197.165418,97.567241 197.350862,97.9429146 198.093406,97.9429146 L198.279617,97.9429146 L198.279617,100.554116 L197.53554,100.554116 C194.756174,100.554116 194.011331,99.437895 194.011331,96.8236079 L194.011331,95.331713 C194.011331,93.8367327 194.011331,92.7143403 191.231965,92.7143403 L186.782832,92.7143403 L186.782832,97.9421433 L189.749176,97.9421433 L189.749176,100.553345 L181.589624,100.553345 L181.589624,97.9421433 L183.817255,97.9421433 L183.817255,84.5027469 L181.589624,84.5027469 L181.589624,81.8900032 L181.589624,81.8900032 L181.589624,81.8900032 M207.1794,56.6265312 C212.558053,56.6265312 214.410964,58.9816268 214.410964,61.8543342 L214.410964,70.8126456 C214.410964,73.6892101 212.558053,76.0396772 207.1794,76.0396772 C201.800747,76.0396772 199.947836,73.6884386 199.947836,70.8126456 L199.947836,61.8543342 C199.947827,58.9816338 201.800761,56.6265312 207.1794,56.6265312 M197.9072,57.0022045 L197.9072,63.7211309 L195.127067,63.7211309 L195.127067,59.6157203 L192.342337,59.6157203 L192.342337,73.0551166 L194.941623,73.0551166 L194.941623,75.6655469 L186.781304,75.6655469 L186.781304,73.0551166 L189.376759,73.0551166 L189.376759,59.6157203 L186.596626,59.6157203 L186.596626,63.7211309 L183.814961,63.7211309 L183.814961,57.0022045 L197.9072,57.0022045 L197.9072,57.0022045 L197.9072,57.0022045 M182.332163,57.0022045 L182.332163,59.6157203 L180.104532,59.6157203 L180.104532,75.665546 L177.511376,75.665546 L168.239157,62.1906654 L168.239157,73.0551152 L170.461425,73.0551152 L170.461425,75.6655454 L163.416838,75.6655454 L163.416838,73.0551152 L165.640637,73.0551152 L165.640637,59.6157188 L163.416838,59.6157188 L163.416838,57.002203 L168.239158,57.002203 L177.511376,70.3312874 L177.511376,59.6157184 L175.284511,59.6157184 L175.284511,57.0022026 L182.332163,57.0022026 L182.332163,57.0022026 L182.332163,57.0022045 M173.431607,40.9624074 C175.320534,41.8194369 176.027062,43.4239567 176.027062,45.1804429 L176.027062,45.5522595 C176.027062,48.4257383 174.915162,50.7769767 169.908164,50.7769767 L160.265058,50.7769767 L160.265058,48.1657751 L162.491923,48.1657751 L162.491923,34.7240659 L160.265058,34.7240659 L160.265058,32.1097787 L169.53651,32.1097787 C174.543507,32.1097787 175.469197,34.278966 175.469197,37.152445 L175.469197,37.3383533 C175.469194,38.8333491 174.840823,40.1385535 173.431607,40.9624074 M190.862572,41.5201261 C192.787515,42.1912473 193.271049,43.5728314 193.271049,45.5530249 L193.271049,47.0480053 C193.271049,47.7924098 193.455727,48.167312 194.199804,48.167312 L194.382949,48.167312 L194.382949,50.7785136 L193.641938,50.7785136 C190.862571,50.7785136 190.118495,49.6592069 190.118495,47.0480053 L190.118495,45.5530249 C190.118495,44.0611301 190.118495,42.9387377 187.339129,42.9387377 L182.887697,42.9387377 L182.887697,48.1665407 L185.854041,48.1665407 L185.854041,50.7777423 L177.696022,50.7777423 L177.696022,48.1665407 L179.921354,48.1665407 L179.921354,34.7248314 L177.696022,34.7248314 L177.696022,32.1105442 L187.152152,32.1105442 C192.15915,32.1105442 193.27105,34.4656398 193.27105,37.3383472 L193.27105,37.5281126 C193.271054,39.1689079 192.605172,40.700133 190.862572,41.5201261 M201.431409,34.724838 L201.431409,48.1665473 L203.656741,48.1665473 L203.656741,50.7777489 L196.237434,50.7777489 L196.237434,48.1665473 L198.464299,48.1665473 L198.464299,34.724838 L196.237434,34.724838 L196.237434,32.1105509 L203.656741,32.1105509 L203.656741,34.724838 L201.431409,34.724838 L201.431409,34.724838 L201.431409,34.724838 M199.946283,93.838286 L202.729481,93.838286 L202.729481,95.5191746 C202.729481,97.0110694 203.655171,98.1303762 207.17938,98.1303762 C210.705122,98.1303762 211.630811,96.6384814 211.630811,95.1442723 C211.630811,90.2913716 200.317939,94.7724558 200.317939,86.9303657 C200.317939,84.0568869 201.801494,81.7025627 207.179381,81.7025627 C208.849146,81.7025627 210.331935,81.8915566 211.630812,82.8249551 L212.0017,81.8915566 L214.039289,81.8915566 L214.039289,88.6112548 L211.257624,88.6112548 L211.257624,86.7444577 C211.257624,85.2494773 210.704356,84.3191644 207.17938,84.3191644 C203.655171,84.3191644 203.098072,85.4384711 203.098072,86.930366 C203.098072,91.7863525 214.410944,86.930366 214.410944,95.1442726 C214.410944,98.1303765 212.5565,100.743892 207.17938,100.743892 C205.511913,100.743892 203.655171,100.55567 202.358593,99.6253567 L201.987704,100.55567 L199.94705,100.55567 L199.94705,93.838286 L199.94705,93.838286 L199.946283,93.838286 M216.822495,86.742916 C216.822495,83.8694372 218.678471,81.515113 224.054059,81.515113 C229.434244,81.515113 231.287921,83.8702086 231.287921,86.742916 L231.287921,95.7043128 C231.287921,98.5808773 229.433477,100.928259 224.054059,100.928259 C218.678471,100.928259 216.822495,98.5801058 216.822495,95.7043128 L216.822495,86.742916 L216.822495,86.742916 L216.822495,86.742916" id="Shape" fill="rgb(0,0,0)"></path>
        </g>
    </g>
</svg>