<?xml version="1.0" encoding="utf-8"?>
<!-- Generator: Adobe Illustrator 16.0.0, SVG Export Plug-In . SVG Version: 6.00 Build 0)  -->
<!DOCTYPE svg PUBLIC "-//W3C//DTD SVG 1.1//EN" "http://www.w3.org/Graphics/SVG/1.1/DTD/svg11.dtd">
<svg version="1.1" id="Layer_1" xmlns="http://www.w3.org/2000/svg" xmlns:xlink="http://www.w3.org/1999/xlink" x="0px" y="0px"
	 width="800px" height="600px" viewBox="0 0 800 600" enable-background="new 0 0 800 600" xml:space="preserve">
<g>
	<g>
		<defs>
			<rect id="SVGID_1_" x="183" y="122" width="433" height="357"/>
		</defs>
		<clipPath id="SVGID_2_">
			<use xlink:href="#SVGID_1_"  overflow="visible"/>
		</clipPath>
		<path clip-path="url(#SVGID_2_)" d="M576.801,123.002h-89.602c-21.121,0-50.617,12.218-65.551,27.152L271.152,300.646
			c-14.933,14.934-14.933,39.37,0,54.309l112.094,112.09c14.934,14.938,39.371,14.938,54.309,0l150.492-150.493
			c14.934-14.933,27.152-44.433,27.152-65.55V161.4C615.199,140.279,597.922,123.002,576.801,123.002L576.801,123.002z
			 M525.602,251.002c-21.211,0-38.402-17.196-38.402-38.403s17.191-38.398,38.402-38.398c21.207,0,38.398,17.191,38.398,38.398
			S546.809,251.002,525.602,251.002L525.602,251.002z M214.652,336.849l136.95,136.953c-14.504,7.664-32.985,5.414-45.157-6.757
			l-112.093-112.09c-14.934-14.938-14.934-39.375,0-54.309l150.496-150.493c14.933-14.934,44.433-27.152,65.55-27.152
			L214.652,318.748C209.672,323.728,209.672,331.873,214.652,336.849L214.652,336.849z M214.652,336.849"/>
	</g>
</g>
</svg>
