<?xml version="1.0" encoding="utf-8"?>
<!-- Generator: Adobe Illustrator 17.0.0, SVG Export Plug-In . SVG Version: 6.00 Build 0)  -->
<!DOCTYPE svg PUBLIC "-//W3C//DTD SVG 1.1//EN" "http://www.w3.org/Graphics/SVG/1.1/DTD/svg11.dtd">
<svg version="1.1" id="v5_xA0_Image_1_" xmlns="http://www.w3.org/2000/svg" xmlns:xlink="http://www.w3.org/1999/xlink" x="0px"
	 y="0px" width="527.525px" height="152.002px" viewBox="0 0 527.525 152.002" enable-background="new 0 0 527.525 152.002"
	 xml:space="preserve">
<g>
	<g>
		<path fill="#3498DB" d="M136.862,115.403l-9.94-19.626h-76.72l-9.94,19.626H-0.095L61.417-0.568h54.885l60.662,115.972H136.862z
			 M114.518,70.374L92.173,26.449h-7.052L62.776,70.374H114.518z"/>
	</g>
	<g>
		<path fill="#3498DB" d="M0,152.002v-25.041h4.054v2.841h0.243c0.883-1.258,2.126-2.092,3.73-2.504
			c1.604-0.411,4.423-0.616,8.459-0.616c3.478,0,6.095,0.108,7.852,0.325c1.756,0.218,3.203,0.614,4.338,1.188
			c1.766,0.885,2.973,2.096,3.622,3.633c0.648,1.49,0.973,3.555,0.973,6.194c0,3.338-0.595,5.799-1.784,7.382
			c-1.189,1.6-2.797,2.655-4.824,3.167c-2.027,0.513-5.563,0.769-10.608,0.769c-3.694,0-6.343-0.198-7.946-0.594
			c-1.604-0.396-2.875-1.168-3.811-2.317H4.054v5.573H0z M17.433,129.755c-3.262,0-5.685,0.09-7.271,0.269
			c-1.586,0.178-2.766,0.492-3.541,0.942c-0.955,0.56-1.644,1.371-2.067,2.434c-0.424,1.063-0.635,2.527-0.635,4.39
			c0,2.189,0.23,3.843,0.689,4.961c0.459,1.117,1.248,1.94,2.365,2.468c1.477,0.699,4.469,1.048,8.973,1.048
			c3.009,0,5.275-0.089,6.798-0.268c1.522-0.178,2.68-0.492,3.473-0.943c0.973-0.559,1.671-1.377,2.094-2.456
			s0.635-2.573,0.635-4.483c0-2.157-0.226-3.784-0.676-4.879c-0.45-1.094-1.234-1.905-2.351-2.434
			C24.478,130.104,21.649,129.755,17.433,129.755z"/>
		<path fill="#3498DB" d="M37.136,126.961h4.054v2.98h0.27c0.631-0.993,1.595-1.777,2.892-2.352
			c0.774-0.342,1.797-0.579,3.068-0.711c1.27-0.132,3.167-0.197,5.689-0.197c2.522,0,4.401,0.12,5.635,0.36
			c1.234,0.241,2.292,0.68,3.176,1.315c1.729,1.289,2.595,3.377,2.595,6.265v2.282h-4.163v-1.583c0-1.227-0.094-2.154-0.284-2.783
			c-0.189-0.629-0.527-1.145-1.014-1.549c-1.027-0.822-3.162-1.234-6.405-1.234c-4.883,0-8.014,0.548-9.393,1.642
			c-1.378,1.095-2.067,3.583-2.067,7.464v10.2h-4.054V126.961z"/>
		<path fill="#3498DB" d="M82.732,126.682c4.036,0,7.014,0.104,8.933,0.313c1.919,0.21,3.419,0.595,4.5,1.153
			c1.622,0.838,2.793,2.03,3.514,3.574c0.721,1.545,1.081,3.645,1.081,6.3c0,2.949-0.432,5.193-1.297,6.729
			c-0.631,1.165-1.473,2.073-2.527,2.725c-1.054,0.652-2.437,1.126-4.149,1.421c-1.658,0.295-4.415,0.442-8.271,0.442
			c-3.64,0-6.388-0.104-8.244-0.314c-1.856-0.209-3.36-0.586-4.514-1.129c-1.712-0.792-2.937-1.96-3.676-3.505
			s-1.108-3.707-1.108-6.485c0-3.105,0.531-5.457,1.595-7.057c1.081-1.646,2.576-2.748,4.486-3.307
			C74.966,126.984,78.191,126.697,82.732,126.682z M83.381,129.755c-2.685,0-4.712,0.086-6.081,0.257
			c-1.37,0.171-2.459,0.481-3.271,0.931c-0.955,0.528-1.648,1.362-2.081,2.504c-0.433,1.141-0.649,2.697-0.649,4.669
			c0,2.235,0.288,3.909,0.865,5.019c0.576,1.11,1.567,1.898,2.973,2.363c1.549,0.513,4.567,0.769,9.054,0.769
			c2.919,0,5.068-0.093,6.446-0.279s2.473-0.535,3.284-1.048c0.901-0.543,1.545-1.358,1.933-2.445
			c0.387-1.086,0.581-2.615,0.581-4.587c0-2.329-0.307-4.037-0.919-5.124c-0.685-1.211-1.824-2.018-3.419-2.422
			C90.503,129.957,87.597,129.755,83.381,129.755z"/>
	</g>
	<g>
		<path fill="#3498DB" d="M420.017,126.719h4.054v13.654c0,2.885-0.206,4.064-0.617,5.539c-0.376,1.385-1.396,3.513-3.061,4.385
			c-1.092,0.564-2.59,0.948-4.496,1.154c-1.905,0.204-4.916,0.308-9.032,0.308c-4.259,0-7.417-0.192-9.475-0.577
			c-2.059-0.385-3.588-2.064-4.59-3.039c-0.483-0.461-0.802-0.913-0.953-1.355c-0.152-0.442-0.229-1.087-0.229-1.933h4.134
			c0.09,0.68,0.269,1.202,0.537,1.567s0.725,0.676,1.369,0.933c1.413,0.59,4.339,0.885,8.777,0.885c3.829,0,6.611-0.119,8.348-0.355
			c1.735-0.238,2.952-0.671,3.65-1.299c0.555-0.513,0.93-1.118,1.127-1.817c0.197-0.698,0.34-0.978,0.43-2.837h-0.269
			c-1.109,0.988-2.425,1.629-3.945,1.924c-1.521,0.295-4.349,0.442-8.482,0.442c-3.436,0-6.103-0.109-7.999-0.327
			s-3.337-0.59-4.321-1.115c-1.396-0.731-2.416-1.699-3.06-2.904c-0.645-1.205-0.967-2.743-0.967-4.615
			c0-4.052,1.735-6.667,5.207-7.847c1.109-0.372,2.541-0.632,4.295-0.779s4.312-0.221,7.677-0.221c2.773,0,4.782,0.058,6.026,0.173
			c1.243,0.115,2.295,0.34,3.153,0.673c1.056,0.437,1.896,1.014,2.523,1.731h0.241L420.017,126.719z M408.126,129.026
			c-4.975,0-8.276,0.295-9.904,0.885c-1.986,0.731-2.979,2.571-2.979,5.52c0,2.987,1.118,4.866,3.355,5.635
			c1.342,0.462,4.339,0.692,8.991,0.692c5.064,0,8.285-0.313,9.663-0.942c1.002-0.461,1.714-1.128,2.135-2
			c0.42-0.871,0.63-2.108,0.63-3.712c0-1.525-0.241-2.692-0.725-3.5c-0.482-0.808-1.306-1.41-2.469-1.808
			C415.356,129.283,412.457,129.026,408.126,129.026z"/>
	</g>
	<g>
		<path fill="#3498DB" d="M105.611,126.783h3.931v18.126c0,1.719-0.075,2.9-0.223,3.545c-0.149,0.645-0.494,1.24-1.035,1.787
			c-0.629,0.625-1.407,1.058-2.333,1.299c-0.926,0.241-2.307,0.361-4.141,0.361h-0.629v-2.695c1.397-0.026,2.328-0.078,2.791-0.156
			s0.834-0.261,1.114-0.547c0.227-0.234,0.371-0.524,0.433-0.869c0.061-0.345,0.092-1.058,0.092-2.139V126.783z"/>
	</g>
	<g>
		<path fill="#3498DB" d="M456.972,141.971h4.279c-0.073,2.613-1.163,4.439-3.271,5.477c-2.107,1.038-5.777,1.557-11.01,1.557
			c-4.323,0-7.607-0.142-9.851-0.427c-2.244-0.284-3.938-0.765-5.083-1.44c-2.615-1.568-3.924-4.667-3.924-9.295
			c0-3.243,0.554-5.681,1.662-7.311c1.054-1.553,2.575-2.602,4.564-3.147c1.99-0.546,5.31-0.819,9.961-0.819
			c4.45,0,7.666,0.2,9.646,0.6c1.979,0.4,3.561,1.169,4.741,2.307c0.981,0.953,1.653,2.061,2.017,3.321s0.563,3.182,0.6,5.765
			h-28.804c0.108,2.722,0.744,4.59,1.907,5.604c0.781,0.692,2.03,1.165,3.747,1.418c1.717,0.254,4.51,0.381,8.38,0.381
			c2.925,0,5.068-0.115,6.431-0.346c1.363-0.23,2.38-0.653,3.053-1.269C456.527,143.869,456.845,143.077,456.972,141.971z
			 M456.782,135.605c-0.019-2.138-0.69-3.629-2.017-4.475c-0.872-0.568-2.094-0.965-3.665-1.188s-3.874-0.334-6.908-0.334
			c-2.652,0-4.674,0.104-6.063,0.311c-1.39,0.208-2.476,0.573-3.256,1.096c-1.291,0.846-2.035,2.376-2.235,4.59H456.782z"/>
		<path fill="#3498DB" d="M465.039,126.842h4.088v2.951h0.272c0.636-0.983,1.607-1.76,2.916-2.329
			c0.78-0.338,1.812-0.572,3.093-0.703s3.192-0.196,5.736-0.196c2.543,0,4.438,0.119,5.682,0.357
			c1.244,0.239,2.312,0.673,3.202,1.304c1.744,1.276,2.616,3.344,2.616,6.203v2.261h-4.197v-1.568c0-1.215-0.095-2.134-0.286-2.756
			c-0.19-0.623-0.531-1.134-1.021-1.534c-1.035-0.814-3.188-1.222-6.458-1.222c-4.924,0-8.08,0.542-9.47,1.625
			c-1.39,1.084-2.085,3.549-2.085,7.392v10.102h-4.088V126.842z"/>
		<path fill="#3498DB" d="M494.878,141.094h4.359c0,0.308,0,0.516,0,0.623c0,1.184,0.15,2.029,0.45,2.537
			c0.3,0.507,0.895,0.899,1.785,1.176c1.181,0.354,4.578,0.53,10.191,0.53c3.506,0,5.945-0.065,7.317-0.196
			c1.371-0.13,2.356-0.388,2.956-0.772c0.817-0.522,1.227-1.329,1.227-2.421c0-1.322-0.49-2.226-1.472-2.71
			s-2.771-0.719-5.368-0.704c-0.817,0.016-4.751-0.022-11.8-0.115c-1.835-0.03-3.302-0.153-4.401-0.368
			c-1.099-0.216-2.012-0.562-2.738-1.038c-1.381-0.907-2.071-2.437-2.071-4.59c0-2.275,0.863-3.928,2.589-4.958
			c0.908-0.538,2.398-0.926,4.47-1.165c2.07-0.238,5.05-0.357,8.938-0.357c4.342,0,7.544,0.2,9.606,0.6
			c2.062,0.4,3.574,1.107,4.537,2.122c0.472,0.492,0.776,1.011,0.913,1.557c0.136,0.546,0.204,1.465,0.204,2.756h-4.306
			c-0.019-1.338-0.282-2.214-0.79-2.629c-0.563-0.477-1.653-0.822-3.271-1.038c-1.617-0.215-3.961-0.322-7.03-0.322
			c-5.596,0-8.993,0.33-10.192,0.991c-0.872,0.492-1.308,1.322-1.308,2.491c0,1.199,0.509,1.991,1.526,2.375
			c1.017,0.385,3.069,0.554,6.158,0.507c3.052-0.046,7.004,0.016,11.854,0.185c2.942,0.093,5.063,0.639,6.363,1.638
			c1.298,1,1.948,2.583,1.948,4.751c0,1.307-0.228,2.368-0.682,3.183c-0.454,0.815-1.19,1.483-2.207,2.007
			c-0.891,0.461-2.344,0.788-4.36,0.979c-2.017,0.192-4.933,0.288-8.747,0.288c-4.27,0-7.436-0.107-9.497-0.322
			c-2.062-0.216-3.575-0.6-4.537-1.153c-0.981-0.554-1.667-1.223-2.058-2.007c-0.392-0.784-0.586-1.875-0.586-3.274
			C494.851,142.062,494.86,141.679,494.878,141.094z"/>
	</g>
	<g>
		<path fill="#3498DB" d="M141.972,141.471h4.279c-0.073,2.613-1.163,4.439-3.271,5.477c-2.107,1.038-5.777,1.557-11.01,1.557
			c-4.323,0-7.607-0.142-9.851-0.427c-2.244-0.284-3.938-0.765-5.083-1.44c-2.615-1.568-3.924-4.667-3.924-9.295
			c0-3.243,0.554-5.681,1.662-7.311c1.054-1.553,2.575-2.602,4.564-3.147c1.99-0.546,5.31-0.819,9.961-0.819
			c4.45,0,7.666,0.2,9.646,0.6c1.979,0.4,3.561,1.169,4.741,2.307c0.981,0.953,1.653,2.061,2.017,3.321s0.563,3.182,0.6,5.765
			h-28.804c0.108,2.722,0.744,4.59,1.907,5.604c0.781,0.692,2.03,1.165,3.747,1.418c1.717,0.254,4.51,0.381,8.38,0.381
			c2.925,0,5.068-0.115,6.431-0.346c1.363-0.23,2.38-0.653,3.053-1.269C141.527,143.369,141.845,142.577,141.972,141.471z
			 M141.782,135.105c-0.019-2.138-0.69-3.629-2.017-4.475c-0.872-0.568-2.094-0.965-3.665-1.188s-3.874-0.334-6.908-0.334
			c-2.652,0-4.674,0.104-6.063,0.311c-1.39,0.208-2.476,0.573-3.256,1.096c-1.291,0.846-2.035,2.376-2.235,4.59H141.782z"/>
		<path fill="#3498DB" d="M177.252,140.317h4.169c-0.055,2.66-0.772,4.597-2.152,5.812c-1,0.892-2.349,1.511-4.047,1.856
			c-1.699,0.346-4.22,0.519-7.562,0.519c-4.469,0-7.775-0.138-9.919-0.415c-2.145-0.276-3.788-0.776-4.933-1.499
			c-2.525-1.614-3.788-4.696-3.788-9.248c0-3.213,0.545-5.627,1.635-7.241c1.072-1.568,2.616-2.633,4.633-3.194
			c2.017-0.561,5.323-0.842,9.92-0.842c4.142,0,7.221,0.182,9.237,0.542c2.017,0.361,3.552,0.996,4.605,1.903
			c0.745,0.646,1.285,1.395,1.622,2.248c0.336,0.854,0.54,1.987,0.613,3.401h-4.279c-0.054-2.06-0.849-3.416-2.384-4.07
			c-1.535-0.653-4.674-0.979-9.415-0.979c-4.651,0-7.694,0.399-9.129,1.199c-0.945,0.522-1.631,1.364-2.058,2.524
			c-0.428,1.161-0.641,2.749-0.641,4.763c0,1.907,0.259,3.41,0.776,4.509c0.518,1.1,1.331,1.888,2.439,2.364
			c1.525,0.661,4.95,0.991,10.273,0.991c4.196,0,6.953-0.326,8.271-0.98C176.458,143.826,177.161,142.438,177.252,140.317z"/>
		<path fill="#3498DB" d="M188.468,120.922h4.088v5.42h18.095v2.951h-18.095v9.502c0.036,2.076,0.1,3.344,0.191,3.806
			c0.09,0.461,0.354,0.922,0.79,1.384c0.508,0.538,1.271,0.919,2.289,1.142c1.017,0.223,2.507,0.334,4.469,0.334
			c1.835,0,3.17-0.107,4.006-0.323c0.836-0.215,1.489-0.606,1.962-1.176c0.309-0.399,0.514-0.876,0.613-1.43s0.15-1.491,0.15-2.813
			v-1.384h4.061v1.384c0,1.676-0.096,2.948-0.286,3.816c-0.191,0.869-0.55,1.634-1.077,2.295c-0.763,0.953-1.898,1.638-3.406,2.053
			s-3.624,0.622-6.35,0.622c-2.798,0-4.982-0.192-6.554-0.576s-2.738-1.015-3.502-1.891c-0.562-0.646-0.944-1.392-1.145-2.237
			c-0.199-0.846-0.3-2.13-0.3-3.852v-10.655h-6.349v-2.951h6.349V120.922z"/>
		<path fill="#3498DB" d="M227.117,126.342h4.115v2.883c1.29-1.322,2.589-2.18,3.896-2.572c1.309-0.392,3.543-0.588,6.704-0.588
			c4.232,0,7.271,0.262,9.115,0.784c1.844,0.523,3.274,1.53,4.292,3.021c0.835-1.43,2.126-2.422,3.87-2.976
			c1.743-0.553,4.469-0.83,8.175-0.83c3.524,0,6.163,0.192,7.916,0.577c1.753,0.384,3.175,1.076,4.265,2.075
			c0.836,0.8,1.381,1.695,1.636,2.687c0.254,0.992,0.381,2.765,0.381,5.316v11.508h-4.087v-12.315c0-2.69-0.473-4.428-1.417-5.212
			c-1.272-1.061-4.179-1.591-8.721-1.591c-2.598,0-4.578,0.146-5.94,0.438c-1.362,0.293-2.398,0.784-3.106,1.477
			c-0.709,0.707-1.19,1.648-1.444,2.825c-0.255,1.176-0.382,3.094-0.382,5.754v8.625h-4.088v-12.315c0-1.553-0.1-2.698-0.3-3.437
			c-0.2-0.737-0.572-1.321-1.117-1.752c-1.326-1.076-4.251-1.614-8.774-1.614c-2.616,0-4.629,0.149-6.036,0.449
			c-1.408,0.3-2.493,0.812-3.257,1.534c-0.653,0.63-1.086,1.491-1.294,2.582c-0.209,1.093-0.313,3.067-0.313,5.928v8.625h-4.088
			V126.342z"/>
		<path fill="#3498DB" d="M289.784,132.914h-4.252c-0.036-0.399-0.054-0.715-0.054-0.945c0-2.291,1.017-3.852,3.052-4.682
			c2.034-0.83,5.85-1.245,11.445-1.245c4.396,0,7.558,0.169,9.483,0.507c1.926,0.339,3.434,0.984,4.523,1.938
			c0.908,0.769,1.499,1.676,1.771,2.722c0.272,1.045,0.409,2.875,0.409,5.488v11.531h-4.061l0.081-2.56h-0.218
			c-1.018,1.199-2.239,1.972-3.665,2.317c-1.427,0.346-4.119,0.519-8.08,0.519c-4.523,0-7.667-0.092-9.429-0.276
			c-1.763-0.185-3.098-0.568-4.006-1.153c-0.908-0.554-1.54-1.214-1.894-1.983c-0.354-0.769-0.531-1.845-0.531-3.229
			c0-1.691,0.268-2.99,0.804-3.897c0.535-0.907,1.439-1.583,2.711-2.029c1.381-0.508,4.605-0.762,9.674-0.762
			c5.305,0,8.775,0.135,10.41,0.404c1.635,0.269,2.897,0.919,3.788,1.948h0.354v-2.353c0-1.921-0.409-3.305-1.227-4.15
			c-0.727-0.754-1.83-1.265-3.311-1.534c-1.481-0.269-3.902-0.403-7.263-0.403c-4.415,0-7.271,0.219-8.57,0.657
			s-1.948,1.396-1.948,2.871C289.784,132.691,289.784,132.791,289.784,132.914z M300.248,138.241c-3.361,0-5.714,0.051-7.058,0.15
			c-1.345,0.1-2.299,0.288-2.861,0.564c-1.072,0.539-1.608,1.53-1.608,2.976c0,1.43,0.636,2.398,1.908,2.905
			c1.035,0.416,4.523,0.623,10.464,0.623c4.342,0,7.212-0.238,8.611-0.715c1.398-0.477,2.099-1.445,2.099-2.906
			c0-1.414-0.781-2.367-2.344-2.859S304.826,138.241,300.248,138.241z"/>
		<path fill="#3498DB" d="M319.994,126.342h4.088v3.298h0.3c0.872-1.399,2.202-2.345,3.992-2.837
			c1.789-0.492,4.81-0.738,9.061-0.738c3.706,0,6.454,0.173,8.244,0.52c1.789,0.346,3.192,0.973,4.21,1.879
			c0.799,0.724,1.357,1.626,1.676,2.71c0.317,1.084,0.477,2.648,0.477,4.693v12.361h-4.087v-10.886c0-1.952-0.096-3.355-0.286-4.209
			c-0.191-0.853-0.577-1.571-1.158-2.156c-0.691-0.676-1.749-1.156-3.175-1.441c-1.427-0.284-3.557-0.426-6.391-0.426
			c-3.161,0-5.623,0.195-7.385,0.588c-1.763,0.392-3.089,1.034-3.979,1.926c-0.618,0.646-1.022,1.372-1.213,2.179
			c-0.19,0.808-0.286,2.241-0.286,4.302v10.124h-4.088V126.342z"/>
		<path fill="#3498DB" d="M360.342,132.914h-4.252c-0.036-0.399-0.054-0.715-0.054-0.945c0-2.291,1.017-3.852,3.052-4.682
			c2.034-0.83,5.85-1.245,11.445-1.245c4.396,0,7.558,0.169,9.483,0.507c1.926,0.339,3.434,0.984,4.523,1.938
			c0.908,0.769,1.499,1.676,1.771,2.722c0.272,1.045,0.409,2.875,0.409,5.488v11.531h-4.061l0.081-2.56h-0.218
			c-1.018,1.199-2.239,1.972-3.665,2.317c-1.427,0.346-4.119,0.519-8.08,0.519c-4.523,0-7.667-0.092-9.429-0.276
			c-1.763-0.185-3.098-0.568-4.006-1.153c-0.908-0.554-1.54-1.214-1.894-1.983c-0.354-0.769-0.531-1.845-0.531-3.229
			c0-1.691,0.268-2.99,0.804-3.897c0.535-0.907,1.439-1.583,2.711-2.029c1.381-0.508,4.605-0.762,9.674-0.762
			c5.305,0,8.775,0.135,10.41,0.404c1.635,0.269,2.897,0.919,3.788,1.948h0.354v-2.353c0-1.921-0.409-3.305-1.227-4.15
			c-0.727-0.754-1.83-1.265-3.311-1.534c-1.481-0.269-3.902-0.403-7.263-0.403c-4.415,0-7.271,0.219-8.57,0.657
			s-1.948,1.396-1.948,2.871C360.342,132.691,360.342,132.791,360.342,132.914z M370.806,138.241c-3.361,0-5.714,0.051-7.058,0.15
			c-1.345,0.1-2.299,0.288-2.861,0.564c-1.072,0.539-1.608,1.53-1.608,2.976c0,1.43,0.636,2.398,1.908,2.905
			c1.035,0.416,4.523,0.623,10.464,0.623c4.342,0,7.212-0.238,8.611-0.715c1.398-0.477,2.099-1.445,2.099-2.906
			c0-1.414-0.781-2.367-2.344-2.859S375.384,138.241,370.806,138.241z"/>
	</g>
	<g>
		<path fill="#3498DB" d="M182.929,115.519V-0.184h92.709c18.376,0,30.207,0.311,35.497,0.932
			c13.418,1.526,22.49,5.213,27.218,11.062c4.725,5.849,7.089,16.289,7.089,31.32c0,14.297-1.95,24.327-5.85,30.091
			c-2.645,3.899-6.346,6.866-11.105,8.9c-4.759,2.035-11.271,3.448-19.533,4.238c-5.884,0.566-16.856,0.848-32.919,0.848h-51.858
			v28.312H182.929z M224.177,58.303h51.56c9.386-0.056,15.121-0.169,17.203-0.339s3.949-0.621,5.603-1.356
			c2.114-0.96,3.569-2.416,4.362-4.365c0.794-1.949,1.19-4.986,1.19-9.112c0-4.125-0.496-7.148-1.487-9.07
			c-0.992-1.92-2.744-3.306-5.256-4.153c-1.851-0.622-9.057-1.018-21.615-1.187h-51.56V58.303z"/>
	</g>
	<g>
		<path fill="#3498DB" d="M388.453,81.028c0,0-9.875-2.542-8.819-13.292c0.669-6.81,4.183-10.953,6.944-13.583
			c15.13-14.41,64-53.75,64-53.75L450.931,0h-86.073c-6.627,0-12,5.373-12,12v92.903c0,6.627,5.373,12,12,12h58.845l7.25-18.875
			L388.453,81.028z"/>
		<path fill="#3498DB" d="M515.525,0h-15.346c0.381,1.097,0.653,2.324,0.649,3.153c-0.005,1.178-0.085,3.447-0.5,4.5
			c-7.25,18.375-28.508,72.105-28.508,72.105l17.217,6.854l-11.344,29.371l-17.406-6.871l-3.083,7.792h58.322
			c6.627,0,12-5.373,12-12V12C527.525,5.373,522.152,0,515.525,0z"/>
		<path fill="#3498DB" d="M452.245,41.237c-0.313-0.166-1.139-0.219-1.417,0c-6.021,4.75-25,20.333-25,20.333l16.667,6.75
			c0,0,7.737-19.66,10.413-26.118C453.057,41.841,452.479,41.361,452.245,41.237z"/>
	</g>
</g>
</svg>
