<?xml version="1.0" encoding="utf-8"?>
<!-- Generator: Adobe Illustrator 16.0.0, SVG Export Plug-In . SVG Version: 6.00 Build 0)  -->
<!DOCTYPE svg PUBLIC "-//W3C//DTD SVG 1.1//EN" "http://www.w3.org/Graphics/SVG/1.1/DTD/svg11.dtd">
<svg version="1.1" id="Layer_1" xmlns="http://www.w3.org/2000/svg" xmlns:xlink="http://www.w3.org/1999/xlink" x="0px" y="0px"
	 width="800px" height="600px" viewBox="0 0 800 600" enable-background="new 0 0 800 600" xml:space="preserve">
<g>
	<path d="M488.996,398.043c-7.578-1.195-7.754-21.858-7.754-21.858s22.277-21.863,27.133-51.263c13.059,0,21.125-31.254,8.062-42.25
		c0.547-11.578,16.789-90.871-65.438-90.871c-82.227,0-65.984,79.293-65.437,90.871c-13.063,10.996-4.997,42.25,8.062,42.25
		c4.855,29.399,27.133,51.263,27.133,51.263s-0.176,20.663-7.754,21.858c-24.422,3.856-115.606,43.728-115.606,87.454h307.204
		C604.602,441.771,513.418,401.899,488.996,398.043L488.996,398.043z M332.621,405.021c17.637-10.859,39.051-20.927,56.617-26.97
		c-6.3-8.976-13.32-21.176-17.734-35.625c-6.16-5.026-11.176-12.215-14.399-21.043c-3.226-8.84-4.449-18.741-3.441-27.875
		c0.719-6.554,2.59-12.664,5.457-18.035c-1.738-18.633-2.965-55.211,20.981-81.891c9.285-10.347,21.023-17.785,35.078-22.273
		C412.672,145.403,399.52,115,348.602,115c-82.227,0-65.985,79.293-65.442,90.872c-13.062,10.996-4.996,42.25,8.067,42.25
		c4.851,29.398,27.128,51.261,27.128,51.261s-0.171,20.664-7.753,21.86C286.184,325.098,195,364.969,195,408.696h131.84
		C328.723,407.465,330.641,406.239,332.621,405.021L332.621,405.021z M332.621,405.021"/>
</g>
</svg>
