<?xml version="1.0" encoding="utf-8"?>
<!-- Generator: Adobe Illustrator 15.1.0, SVG Export Plug-In . SVG Version: 6.00 Build 0)  -->
<!DOCTYPE svg PUBLIC "-//W3C//DTD SVG 1.1//EN" "http://www.w3.org/Graphics/SVG/1.1/DTD/svg11.dtd">
<svg version="1.1" id="Layer_1" xmlns="http://www.w3.org/2000/svg" xmlns:xlink="http://www.w3.org/1999/xlink" x="0px" y="0px"
	 width="182px" height="55px" viewBox="-0.474 0 182 55" enable-background="new -0.474 0 182 55" xml:space="preserve">
<g>
	<g>
		<path fill="#103E6A" d="M62.982,43.611c-3.063,0-6.263-0.496-7.753-0.953c-2.152-0.702-2.275-1.74-2.275-3.436V12.079
			c0-0.455,0.206-0.708,0.621-0.708h3.518c0.373,0,0.581,0.248,0.581,0.622v7.446l0.001,2.351c1.029-0.259,4.015-0.985,6.428-0.985
			c6.662,0,9.325,3.229,9.325,11.218C73.428,40.008,70.971,43.611,62.982,43.611z M63.188,24.24c-2.152,0-5.518,0.787-5.518,0.787
			V39.68c0,0,1.904,0.578,4.593,0.578c4.139,0,6.36-1.736,6.36-8.112C68.625,25.813,67.204,24.24,63.188,24.24z"/>
		<path fill="#103E6A" d="M108.065,43.611c-3.606,0-7.223-1.076-7.843-1.324c-0.121-0.084-0.372-0.167-0.372-0.498V41.58l0.454-2.07
			c0.043-0.287,0.207-0.454,0.459-0.454c0.077,0,0.119,0,0.205,0.04c0.453,0.124,3.744,1.079,6.808,1.079
			c2.73,0,4.942-0.869,4.942-3.063c0-2.771-2.379-2.771-5.151-3.229c-2.314-0.37-7.509-0.826-7.509-6.456
			c0-5.669,5.397-6.623,9.042-6.623c3.436,0,6.475,0.746,7.056,0.911c0.333,0.083,0.456,0.29,0.456,0.539v0.083l-0.373,2.235
			c-0.043,0.29-0.249,0.373-0.457,0.373h-0.12c-0.499-0.082-3.661-0.704-5.98-0.704c-2.358,0-4.943,0.579-4.943,2.857
			c0,2.482,2.792,2.691,5.152,3.021c3.435,0.538,7.511,1.118,7.511,6.582C117.396,42.08,112.947,43.611,108.065,43.611z"/>
		<path fill="#103E6A" d="M126.934,17.498h-2.938c-0.538,0-0.87-0.288-0.87-0.828v-3.198c0-0.539,0.332-0.827,0.87-0.827h2.938
			c0.541,0,0.872,0.289,0.872,0.827v3.198C127.805,17.208,127.474,17.498,126.934,17.498z M127.186,43.074h-3.397
			c-0.413,0-0.662-0.25-0.662-0.62V22.17c0-0.331,0.293-0.578,0.662-0.578h3.397c0.369,0,0.619,0.247,0.619,0.578v20.284
			C127.805,42.824,127.555,43.074,127.186,43.074z"/>
		<path fill="#103E6A" d="M97.265,21.963c0-0.371-0.287-0.622-0.661-0.622h-3.186c-0.455,0-0.702,0.209-0.825,0.622
			c0,0-4.818,11.512-5.154,12.417c-0.336,0.9-0.68,0.919-1.077,0c-0.394-0.923-5.394-12.417-5.394-12.417
			c-0.125-0.413-0.331-0.622-0.786-0.622h-3.478c-0.372,0-0.621,0.291-0.621,0.622v0.208l8.335,18.841
			c0.006,0.021,0.013,0.033,0.021,0.052c0,0-3.593,8.648-3.686,8.905c-0.094,0.26-0.19,0.857,0.564,0.857h2.936
			c0.369,0,0.691-0.242,0.876-0.62l12.095-28.078C97.224,22.088,97.265,22.004,97.265,21.963z"/>
		<path fill="#103E6A" d="M151.354,42.742c-1.613,0.413-4.154,0.87-7.092,0.87c-8.071,0-10.817-3.146-10.817-11.343
			c0-7.574,2.458-11.465,9.785-11.465c2.521,0,4.828,0.418,6.014,0.688l-0.002-9.414c0-0.455,0.22-0.746,0.623-0.746h3.519
			c0.332,0,0.537,0.283,0.537,0.658V39.51C153.92,40.796,153.838,42.08,151.354,42.742z M149.242,24.777c0,0-2.703-0.58-5.021-0.58
			c-3.931,0-5.975,1.036-5.975,7.948c0,7.284,2.335,8.068,6.098,8.068c2.4,0,4.897-0.578,4.897-0.578V24.777L149.242,24.777z"/>
		<path fill="#103E6A" d="M180.35,33.799c0,0.376-0.248,0.789-0.704,0.789h-15.259c0.04,2.026,0.538,3.187,1.533,4.139
			c1.159,1.115,3.281,1.487,5.766,1.487c2.609,0,4.815-0.579,6.347-0.991c0.082-0.043,0.166-0.043,0.207-0.043
			c0.249,0,0.413,0.126,0.538,0.498l0.498,1.904c0.04,0.042,0.04,0.122,0.04,0.167c0,0.29-0.206,0.454-0.453,0.579
			c-1.532,0.622-4.735,1.284-7.798,1.284c-8.113,0-11.437-3.438-11.437-11.344c0-7.491,2.33-11.465,10.444-11.465
			c4.221,0,7.174,1.158,8.621,3.311c1.327,1.862,1.697,4.472,1.697,7.699C180.391,32.351,180.391,33.179,180.35,33.799z
			 M175.258,27.385c-0.621-2.441-2.413-3.228-5.187-3.228c-3.02,0-4.773,0.827-5.312,3.145c-0.332,1.285-0.332,2.65-0.372,4.057
			l11.242-0.041C175.629,29.91,175.59,28.628,175.258,27.385z"/>
	</g>
	<path fill="#103E6A" d="M37.514,15.006l-5.891-4.943c-0.27-0.227-0.673-0.191-0.899,0.077L18.953,24.208l1.155,1.379
		c1.208,1.275,1.998,3.229,1.998,5.328v21.988c0,0.355-0.285,0.642-0.637,0.642h2.662c0.353,0,0.637-0.286,0.637-0.642V31.942
		c0-0.514,0.094-0.863,0.396-1.224l12.43-14.815C37.819,15.635,37.783,15.232,37.514,15.006z"/>
	<path fill="#EA5D24" d="M15.8,52.904V30.915c0-2.101,0.788-4.053,1.998-5.327l1.156-1.379L7.179,10.14
		C6.953,9.873,6.55,9.835,6.28,10.063l-5.89,4.943c-0.27,0.226-0.306,0.628-0.078,0.897l12.431,14.815
		c0.303,0.36,0.396,0.708,0.396,1.224v20.962c0,0.354,0.285,0.641,0.638,0.641h2.66C16.085,53.545,15.8,53.262,15.8,52.904z"/>
	<path fill="#00467F" d="M22.104,52.904V30.915c0-2.101-0.788-4.053-1.998-5.327l-1.156-1.379l-1.155,1.379
		c-1.209,1.275-1.998,3.228-1.998,5.327v21.989c0,0.354,0.286,0.641,0.638,0.641h5.029C21.818,53.545,22.104,53.262,22.104,52.904z"
		/>
	<g>
		<path fill="#EA5D24" d="M17.118,12.869c0.588,0,1.154-0.093,1.688-0.26c-2.392-0.751-4.133-3.058-4.133-5.786
			c0-2.727,1.741-5.033,4.133-5.784c-0.535-0.169-1.101-0.262-1.688-0.262c-3.215,0-5.823,2.706-5.823,6.045
			C11.296,10.161,13.904,12.869,17.118,12.869z"/>
	</g>
	<g>
		<path fill="#103E6A" d="M22.94,6.823c0,2.728-1.744,5.034-4.134,5.786c0.533,0.167,1.1,0.26,1.687,0.26
			c3.215,0,5.822-2.708,5.822-6.046c0-3.34-2.607-6.045-5.822-6.045c-0.588,0-1.155,0.093-1.687,0.262
			C21.199,1.79,22.94,4.096,22.94,6.823z"/>
	</g>
	<g>
		<path fill="#00467F" d="M14.673,6.823c0,2.728,1.741,5.034,4.133,5.786c2.391-0.751,4.134-3.058,4.134-5.786
			c0-2.727-1.744-5.033-4.134-5.784C16.414,1.79,14.673,4.096,14.673,6.823z"/>
	</g>
	<g>
		<path fill="#103E6A" d="M101.682,53.505c0,0.081-0.062,0.111-0.08,0.111c-0.079,0.041-0.362,0.132-0.768,0.132
			c-0.675,0-1.101-0.354-1.101-1.111v-6.292c0-0.088,0.049-0.129,0.14-0.139l0.657-0.152h0.029c0.082,0,0.11,0.061,0.11,0.141v6.401
			c0,0.362,0.246,0.422,0.446,0.422c0.142,0,0.294-0.028,0.354-0.037c0.021,0,0.031-0.011,0.042-0.011
			c0.038,0,0.07,0.02,0.078,0.089l0.092,0.414V53.505L101.682,53.505z"/>
		<path fill="#103E6A" d="M107.859,51.386c0,0.068-0.07,0.151-0.142,0.151h-3.634c0,0.533,0.11,0.837,0.342,1.088
			c0.284,0.324,0.748,0.436,1.415,0.436c0.626,0,1.032-0.131,1.466-0.253c0.021-0.01,0.04-0.01,0.061-0.01
			c0.049,0,0.078,0.031,0.111,0.102l0.112,0.414c0.01,0.011,0.01,0.026,0.01,0.038c0,0.063-0.04,0.103-0.11,0.121
			c-0.396,0.163-1.063,0.305-1.759,0.305c-1.979,0-2.618-0.893-2.618-2.776c0-1.746,0.397-2.786,2.384-2.786
			c1.053,0,1.669,0.312,2.011,0.856c0.281,0.466,0.354,1.091,0.354,1.815v0.499H107.859z M106.78,49.747
			c-0.165-0.625-0.537-0.816-1.293-0.816c-0.778,0-1.144,0.201-1.301,0.816c-0.092,0.343-0.103,0.719-0.114,1.081l2.826-0.01
			C106.891,50.455,106.869,50.101,106.78,49.747z"/>
		<path fill="#103E6A" d="M113.221,53.636c-0.305,0.07-0.786,0.142-1.332,0.142c-0.921,0-2.342-0.05-2.342-1.688
			c0-1.33,0.768-1.412,1.716-1.575l1.898-0.312v-0.447c0-0.31-0.02-0.552-0.352-0.685c-0.185-0.072-0.467-0.099-0.89-0.099
			c-0.758,0-1.445,0.19-1.83,0.282c-0.021,0.008-0.048,0.008-0.069,0.008c-0.039,0-0.091-0.021-0.101-0.078l-0.103-0.495
			c-0.009-0.013-0.009-0.021-0.009-0.032c0-0.069,0.07-0.11,0.111-0.117c0.312-0.116,1.18-0.323,2.131-0.323
			c0.726,0,1.192,0.098,1.491,0.261c0.526,0.292,0.547,0.785,0.547,1.301v2.817C114.089,53.313,113.916,53.474,113.221,53.636z
			 M113.16,50.909l-1.716,0.284c-0.465,0.07-0.93,0.111-0.93,0.867c0,0.959,0.779,1.02,1.394,1.02c0.435,0,0.876-0.05,1.25-0.171v-2
			H113.16z"/>
		<path fill="#103E6A" d="M120.016,53.573c-0.354,0.083-0.81,0.204-1.578,0.204c-1.969,0-2.465-0.836-2.465-2.776
			c0-1.899,0.527-2.786,2.336-2.786c0.687,0,1.21,0.121,1.505,0.192l-0.102-0.589v-1.474c0-0.088,0.062-0.127,0.142-0.139
			l0.646-0.152h0.038c0.081,0,0.113,0.061,0.113,0.141v6.581C120.649,53.131,120.641,53.424,120.016,53.573z M119.72,49.092
			c0,0-0.605-0.161-1.271-0.161c-1.049,0-1.506,0.311-1.506,2.057c0,1.869,0.538,2.071,1.517,2.071c0.695,0,1.261-0.172,1.261-0.172
			V49.092z"/>
		<path fill="#103E6A" d="M130.894,53.636c-0.304,0.07-0.787,0.142-1.331,0.142c-0.921,0-2.339-0.05-2.339-1.688
			c0-1.33,0.764-1.412,1.713-1.575l1.898-0.312v-0.447c0-0.31-0.02-0.552-0.352-0.685c-0.184-0.072-0.464-0.099-0.891-0.099
			c-0.758,0-1.439,0.19-1.825,0.282c-0.025,0.008-0.051,0.008-0.073,0.008c-0.04,0-0.088-0.021-0.1-0.078l-0.101-0.495
			c-0.014-0.013-0.014-0.021-0.014-0.032c0-0.069,0.072-0.11,0.114-0.117c0.312-0.116,1.18-0.323,2.128-0.323
			c0.729,0,1.193,0.098,1.494,0.261c0.529,0.292,0.547,0.785,0.547,1.301v2.817C131.763,53.313,131.591,53.474,130.894,53.636z
			 M130.834,50.909l-1.717,0.284c-0.464,0.07-0.927,0.111-0.927,0.867c0,0.959,0.778,1.02,1.392,1.02c0.436,0,0.88-0.05,1.252-0.171
			V50.909z"/>
		<path fill="#103E6A" d="M137.758,53.373c0,0.08-0.059,0.111-0.101,0.131c-0.254,0.12-0.968,0.262-1.594,0.262
			c-1.91,0-2.415-0.887-2.415-2.778c0-1.876,0.505-2.773,2.415-2.773c0.626,0,1.342,0.152,1.594,0.264
			c0.042,0.021,0.101,0.049,0.101,0.138c0,0.014,0,0.031-0.011,0.054l-0.079,0.394c-0.011,0.081-0.06,0.111-0.119,0.111h-0.062
			c-0.223-0.061-0.798-0.233-1.321-0.233c-1.182,0-1.546,0.507-1.546,2.053c0,1.543,0.364,2.048,1.546,2.048
			c0.523,0,1.099-0.141,1.321-0.202c0.019-0.01,0.041-0.01,0.062-0.01c0.06,0,0.102,0.029,0.119,0.112l0.079,0.371
			C137.758,53.332,137.758,53.352,137.758,53.373z"/>
		<path fill="#103E6A" d="M142.464,53.454c0,0.06-0.039,0.1-0.092,0.121c-0.204,0.072-0.648,0.193-1.243,0.193
			c-1.029,0-1.535-0.436-1.535-1.445v-5.46c0-0.104,0.052-0.134,0.143-0.153l0.657-0.151h0.027c0.082,0,0.115,0.06,0.115,0.139
			v1.647h1.631c0.082,0,0.144,0.062,0.144,0.152v0.435c0,0.079-0.062,0.14-0.153,0.14h-1.624v3.303c0,0.526,0.271,0.666,0.797,0.666
			c0.313,0,0.687-0.079,0.889-0.119c0.009,0,0.021-0.012,0.029-0.012c0.05,0,0.101,0.04,0.111,0.102l0.103,0.425v0.019H142.464z"/>
		<path fill="#103E6A" d="M145.056,47.495h-0.593c-0.103,0-0.173-0.071-0.173-0.171v-1.101c0-0.11,0.07-0.169,0.173-0.169h0.593
			c0.104,0,0.162,0.062,0.162,0.169v1.101C145.218,47.436,145.159,47.495,145.056,47.495z M145.077,53.648h-0.638
			c-0.09,0-0.15-0.062-0.15-0.155v-4.977c0-0.092,0.061-0.151,0.15-0.151h0.638c0.09,0,0.151,0.06,0.151,0.151v4.977
			C145.229,53.586,145.167,53.648,145.077,53.648z"/>
		<path fill="#103E6A" d="M150.366,53.484c-0.029,0.102-0.114,0.164-0.214,0.164h-1.241c-0.101,0-0.181-0.062-0.212-0.164
			l-1.624-4.947c0-0.021-0.011-0.03-0.011-0.051c0-0.071,0.047-0.142,0.121-0.142h0.703c0.103,0,0.143,0.062,0.165,0.142
			l1.353,4.503h0.262l1.209-4.503c0.023-0.079,0.081-0.142,0.184-0.142h0.726c0.081,0,0.142,0.062,0.142,0.13
			c0,0.012,0,0.022-0.01,0.042L150.366,53.484z"/>
		<path fill="#103E6A" d="M157.037,53.636c-0.302,0.07-0.784,0.142-1.33,0.142c-0.921,0-2.343-0.05-2.343-1.688
			c0-1.33,0.77-1.412,1.717-1.575l1.898-0.312v-0.447c0-0.31-0.02-0.552-0.354-0.685c-0.18-0.072-0.462-0.099-0.889-0.099
			c-0.756,0-1.442,0.19-1.828,0.282c-0.02,0.008-0.047,0.008-0.067,0.008c-0.039,0-0.091-0.021-0.102-0.078l-0.104-0.495
			c-0.009-0.013-0.009-0.021-0.009-0.032c0-0.069,0.072-0.11,0.112-0.117c0.312-0.116,1.181-0.323,2.131-0.323
			c0.727,0,1.19,0.098,1.491,0.261c0.527,0.292,0.548,0.785,0.548,1.301v2.817C157.908,53.313,157.732,53.474,157.037,53.636z
			 M156.978,50.909l-1.714,0.284c-0.467,0.07-0.932,0.111-0.932,0.867c0,0.959,0.778,1.02,1.395,1.02
			c0.436,0,0.875-0.05,1.251-0.171V50.909L156.978,50.909z"/>
		<path fill="#103E6A" d="M162.924,53.454c0,0.06-0.039,0.1-0.094,0.121c-0.198,0.072-0.645,0.193-1.239,0.193
			c-1.031,0-1.535-0.436-1.535-1.445v-5.46c0-0.104,0.05-0.134,0.143-0.153l0.655-0.151h0.03c0.078,0,0.11,0.06,0.11,0.139v1.647
			h1.636c0.079,0,0.142,0.062,0.142,0.152v0.435c0,0.079-0.062,0.14-0.152,0.14h-1.629v3.303c0,0.526,0.276,0.666,0.801,0.666
			c0.312,0,0.687-0.079,0.887-0.119c0.011,0,0.023-0.012,0.03-0.012c0.051,0,0.102,0.04,0.112,0.102l0.102,0.425v0.019H162.924z"/>
		<path fill="#103E6A" d="M165.516,47.495h-0.593c-0.103,0-0.17-0.071-0.17-0.171v-1.101c0-0.11,0.069-0.169,0.17-0.169h0.593
			c0.102,0,0.165,0.062,0.165,0.169v1.101C165.681,47.436,165.617,47.495,165.516,47.495z M165.538,53.648h-0.639
			c-0.09,0-0.149-0.062-0.149-0.155v-4.977c0-0.092,0.06-0.151,0.149-0.151h0.639c0.089,0,0.15,0.06,0.15,0.151v4.977
			C165.688,53.586,165.629,53.648,165.538,53.648z"/>
		<path fill="#103E6A" d="M170.171,53.777c-2.143,0-2.403-1.251-2.403-2.776c0-1.534,0.264-2.786,2.403-2.786
			c2.15,0,2.402,1.252,2.402,2.786C172.573,52.525,172.323,53.777,170.171,53.777z M170.171,48.932
			c-1.365,0-1.424,0.796-1.424,2.069c0,1.26,0.062,2.058,1.424,2.058c1.374,0,1.435-0.798,1.435-2.058
			C171.605,49.729,171.545,48.932,170.171,48.932z"/>
		<path fill="#103E6A" d="M178.874,53.648h-0.626c-0.102,0-0.164-0.062-0.164-0.155V49.8c0-0.647-0.241-0.869-0.895-0.869
			c-0.86,0-1.738,0.254-1.738,0.254v4.312c0,0.09-0.051,0.154-0.153,0.154h-0.624c-0.103,0-0.163-0.064-0.163-0.154v-4.23
			c0-0.394,0.061-0.563,0.586-0.737c0.524-0.174,1.494-0.312,2.141-0.312c1.211,0,1.788,0.361,1.788,1.473v3.804
			C179.025,53.586,178.975,53.648,178.874,53.648z"/>
	</g>
	<path fill="#13233B" d="M22.104,52.904V30.915c0-2.101-0.788-4.053-1.998-5.327l-1.156-1.379l-1.155,1.379
		c-1.209,1.275-1.998,3.228-1.998,5.327v21.989c0,0.354,0.286,0.641,0.638,0.641h5.029C21.818,53.545,22.104,53.262,22.104,52.904z"
		/>
	<g>
		<path fill="#13233B" d="M14.673,6.823c0,2.728,1.741,5.034,4.133,5.786c2.391-0.751,4.134-3.058,4.134-5.786
			c0-2.727-1.744-5.033-4.134-5.784C16.414,1.79,14.673,4.096,14.673,6.823z"/>
	</g>
</g>
</svg>
